<svg width="22" height="21" viewBox="0 0 22 21" fill="none" xmlns="http://www.w3.org/2000/svg">
<g id="&#231;&#188;&#150;&#231;&#187;&#132; 20">
<g id="add">
<g id="&#231;&#188;&#150;&#231;&#187;&#132; 3">
<rect id="&#231;&#159;&#169;&#229;&#189;&#162;" x="1" y="1" width="19" height="19" rx="9.5" transform="matrix(-4.37114e-08 1 1 4.37114e-08 0.5 4.37114e-08)" stroke="#444444" style="stroke:#444444;stroke:color(display-p3 0.2667 0.2667 0.2667);stroke-opacity:1;" stroke-width="2"/>
<path id="v" fill-rule="evenodd" clip-rule="evenodd" d="M9.14639 5.19675C9.34165 5.00149 9.65823 5.00149 9.85349 5.19675L14.0894 9.4327C14.0917 9.43487 14.0939 9.43706 14.0961 9.43928L14.8032 10.1464C14.9078 10.2509 14.9563 10.3902 14.949 10.527C14.9426 10.6458 14.894 10.7628 14.8032 10.8536L14.0961 11.5607C14.094 11.5628 14.0919 11.5649 14.0898 11.567L9.8535 15.8032C9.65824 15.9985 9.34165 15.9985 9.14639 15.8032L8.43928 15.0961C8.24402 14.9009 8.24402 14.5843 8.43928 14.389L12.3283 10.5L8.43928 6.61097C8.24402 6.41571 8.24402 6.09912 8.43928 5.90386L9.14639 5.19675Z" fill="#444444" style="fill:#444444;fill:color(display-p3 0.2667 0.2667 0.2667);fill-opacity:1;"/>
</g>
</g>
</g>
</svg>
