<svg width="42" height="42" viewBox="0 0 42 42" fill="none" xmlns="http://www.w3.org/2000/svg">
<g id="&#231;&#188;&#150;&#231;&#187;&#132; 20">
<g id="add">
<g id="&#231;&#188;&#150;&#231;&#187;&#132; 3">
<rect id="&#231;&#159;&#169;&#229;&#189;&#162;" x="2" y="-2" width="38" height="38" rx="19" transform="matrix(1 0 0 -1 0 38)" stroke="#444444" style="stroke:#444444;stroke:color(display-p3 0.2667 0.2667 0.2667);stroke-opacity:1;" stroke-width="4"/>
<path id="v" fill-rule="evenodd" clip-rule="evenodd" d="M10.3936 24.7071C10.0031 24.3166 10.0031 23.6834 10.3936 23.2929L18.8789 14.8076L20.2931 13.3934C20.6836 13.0029 21.3168 13.0029 21.7073 13.3934L23.1216 14.8076L31.6068 23.2929C31.9974 23.6834 31.9974 24.3166 31.6068 24.7071L30.1926 26.1213C29.8021 26.5118 29.1689 26.5118 28.7784 26.1213L21.0002 18.3431L13.2221 26.1213C12.8315 26.5118 12.1984 26.5118 11.8078 26.1213L10.3936 24.7071Z" fill="#444444" style="fill:#444444;fill:color(display-p3 0.2667 0.2667 0.2667);fill-opacity:1;"/>
</g>
</g>
</g>
</svg>
